# xmcd
#
# Track frame offsets:
#	150
#	11375
#	31302
#	44677
#	62014
#	78115
#	100032
#	114855
#	130525
#	144980
#	160000
#	177517
#	191287
#	204990
#	225247
#
# Disc length: 3236
#
# Revision: 2
# Processed by: cddbd v1.5.1PL0 Copyright (c) Steve Scherf et al.
# Submitted via: audiograbber 1.80.04
# Normalized: r1:DSETVAR1
#
DISCID=a90ca20f
DTITLE=Various Artist - The Names Behind the Artists
DYEAR=1900
DGENRE=Country
TTITLE0=Tony Arata - The Dance
TTITLE1=Julie Gold - From a Distance
TTITLE2=Dennis Robbins - Chruch on Cumberland Road
TTITLE3=Hugh Prestwood - The Song Remembers When
TTITLE4=Pat Alger - Seeds
TTITLE5=Karen Taylor - Good
TTITLE6=John Denver - Leavin' On a Jet Plane
TTITLE7=Don Henry - Where've You Been
TTITLE8=Dennis Morgan - I Was Country When Country Wasn't...
TTITLE9=Pat Alger - Goin' Gone
TTITLE10=Hugh Prestwood - Ghost in This House
TTITLE11=Steve Seskin - Life's a Dance
TTITLE12=Karen Staley - Let's Go To Vegas
TTITLE13=Pete Wasner - Mama Knows the Highway
TTITLE14=Tony Arata - The Change
EXTD=
EXTT0=
EXTT1=
EXTT2=
EXTT3=
EXTT4=
EXTT5=
EXTT6=
EXTT7=
EXTT8=
EXTT9=
EXTT10=
EXTT11=
EXTT12=
EXTT13=
EXTT14=
PLAYORDER=
